<svg width="128" height="20" viewBox="0 0 128 20" fill="none" xmlns="http://www.w3.org/2000/svg">
<path d="M10 0L12.8214 6.11672L19.5106 6.90983L14.5651 11.4833L15.8779 18.0902L10 14.8L4.12215 18.0902L5.43493 11.4833L0.489435 6.90983L7.17863 6.11672L10 0Z" fill="#FF6B00"/>
<path d="M50 0L52.8214 6.11672L59.5106 6.90983L54.5651 11.4833L55.8779 18.0902L50 14.8L44.1221 18.0902L45.4349 11.4833L40.4894 6.90983L47.1786 6.11672L50 0Z" fill="#FF6B00"/>
<path d="M90 0L92.8214 6.11672L99.5106 6.90983L94.5651 11.4833L95.8779 18.0902L90 14.8L84.1221 18.0902L85.4349 11.4833L80.4894 6.90983L87.1786 6.11672L90 0Z" fill="#D9D9D9"/>
<path d="M30 0L32.8214 6.11672L39.5106 6.90983L34.5651 11.4833L35.8779 18.0902L30 14.8L24.1221 18.0902L25.4349 11.4833L20.4894 6.90983L27.1786 6.11672L30 0Z" fill="#FF6B00"/>
<path d="M70 0L72.8214 6.11672L79.5106 6.90983L74.5651 11.4833L75.8779 18.0902L70 14.8L64.1221 18.0902L65.4349 11.4833L60.4894 6.90983L67.1786 6.11672L70 0Z" fill="#FF6B00"/>
<path d="M111.813 15.079V12.726H106.561V11.569L111.501 4.666H113.113V11.569H114.816V12.726H113.113V15.079H111.813ZM107.965 11.569H111.813V6.161L107.965 11.569ZM116.495 15.248C115.975 15.248 115.572 14.845 115.572 14.325C115.572 13.805 115.975 13.402 116.495 13.402C117.015 13.402 117.405 13.805 117.405 14.325C117.405 14.845 117.015 15.248 116.495 15.248ZM122.274 15.313C120.077 15.313 118.426 13.506 118.426 9.866C118.426 6.226 120.077 4.419 122.274 4.419C124.458 4.419 126.109 6.226 126.109 9.866C126.109 13.506 124.458 15.313 122.274 15.313ZM122.274 14.104C123.678 14.104 124.796 12.7 124.796 9.866C124.796 7.045 123.678 5.628 122.274 5.628C120.857 5.628 119.739 7.045 119.739 9.866C119.739 12.7 120.857 14.104 122.274 14.104Z" fill="#999999"/>
</svg>
