<svg width="40" height="40" viewBox="0 0 40 40" fill="none" xmlns="http://www.w3.org/2000/svg">
<circle cx="20" cy="20" r="20" fill="#BBBBBB"/>
<path d="M14.875 32.75C14.2562 32.75 13.7266 32.5297 13.2859 32.0891C12.8453 31.6484 12.625 31.1187 12.625 30.5C12.625 29.8813 12.8453 29.3516 13.2859 28.9109C13.7266 28.4703 14.2562 28.25 14.875 28.25C15.4937 28.25 16.0234 28.4703 16.4641 28.9109C16.9047 29.3516 17.125 29.8813 17.125 30.5C17.125 31.1187 16.9047 31.6484 16.4641 32.0891C16.0234 32.5297 15.4937 32.75 14.875 32.75ZM26.125 32.75C25.5063 32.75 24.9766 32.5297 24.5359 32.0891C24.0953 31.6484 23.875 31.1187 23.875 30.5C23.875 29.8813 24.0953 29.3516 24.5359 28.9109C24.9766 28.4703 25.5063 28.25 26.125 28.25C26.7437 28.25 27.2734 28.4703 27.7141 28.9109C28.1547 29.3516 28.375 29.8813 28.375 30.5C28.375 31.1187 28.1547 31.6484 27.7141 32.0891C27.2734 32.5297 26.7437 32.75 26.125 32.75ZM13.9187 14.75L16.6187 20.375H24.4937L27.5875 14.75H13.9187ZM12.85 12.5H29.4438C29.875 12.5 30.2031 12.6922 30.4281 13.0766C30.6531 13.4609 30.6625 13.85 30.4562 14.2437L26.4625 21.4437C26.2563 21.8187 25.9797 22.1094 25.6328 22.3156C25.2859 22.5219 24.9062 22.625 24.4937 22.625H16.1125L14.875 24.875H28.375V27.125H14.875C14.0312 27.125 13.3937 26.7547 12.9625 26.0141C12.5312 25.2734 12.5125 24.5375 12.9062 23.8062L14.425 21.05L10.375 12.5H8.125V10.25H11.7812L12.85 12.5Z" fill="white"/>
</svg>
